<?xml version="1.0" encoding="utf-8"?>
<svg width="44px" height="44px" viewBox="0 0 44 44" version="1.1" xmlns:xlink="http://www.w3.org/1999/xlink" xmlns="http://www.w3.org/2000/svg">
  <defs>
    <path d="M22 44C34.1503 44 44 34.1503 44 22C44 9.84974 34.1503 0 22 0C9.84974 0 0 9.84974 0 22C0 34.1503 9.84974 44 22 44Z" id="path_1" />
    <clipPath id="clip_1">
      <use xlink:href="#path_1" />
    </clipPath>
  </defs>
  <g id="Oval-2">
    <g clip-path="url(#clip_1)">
      <use xlink:href="#path_1" fill="none" stroke="#000000" stroke-width="4" />
    </g>
  </g>
  <path d="M0 10.1219C0 4.53172 4.53172 0 10.1219 0C12.5266 0 14.7355 0.838579 16.472 2.23926L16.472 0.389305L22.3115 0.389305L22.3115 19.8545L16.472 19.8545L16.472 18.0045C14.7355 19.4052 12.5266 20.2438 10.1219 20.2438C4.53172 20.2438 0 15.712 0 10.1219ZM4.91524 6.81965L4.91383 6.82106Q4.81532 6.91957 4.72695 7.02725Q4.63857 7.13494 4.56118 7.25077Q4.48378 7.3666 4.41812 7.48945Q4.35245 7.61231 4.29914 7.74101Q4.24583 7.86972 4.20539 8.00302Q4.16495 8.13633 4.13777 8.27296Q4.11059 8.40959 4.09694 8.54823Q4.08328 8.68686 4.08328 8.82617Q4.08328 8.96548 4.09694 9.10411Q4.11059 9.24275 4.13777 9.37938Q4.16495 9.51601 4.20539 9.64931Q4.24582 9.78262 4.29913 9.91132Q4.35245 10.04 4.41811 10.1629Q4.48378 10.2857 4.56118 10.4016Q4.63857 10.5174 4.72695 10.6251Q4.81532 10.7328 4.91383 10.8313L8.20631 14.1238Q8.36216 14.3576 8.56089 14.5564L8.56231 14.5578Q8.75979 14.7553 8.99201 14.9104Q9.22423 15.0656 9.48226 15.1725Q9.74028 15.2793 10.0142 15.3338Q10.2881 15.3883 10.5674 15.3883Q10.5869 15.3883 10.6064 15.388Q10.8906 15.392 11.1699 15.3394Q11.4492 15.2868 11.7125 15.1799Q11.9758 15.0729 12.2127 14.9158Q12.4496 14.7587 12.6505 14.5578L12.6519 14.5564Q12.8507 14.3576 13.0065 14.1238L16.299 10.8313Q16.3975 10.7328 16.4859 10.6251Q16.5743 10.5174 16.6517 10.4016Q16.729 10.2857 16.7947 10.1629Q16.8604 10.04 16.9137 9.91132Q16.967 9.78262 17.0074 9.64931Q17.0479 9.51601 17.0751 9.37938Q17.1022 9.24275 17.1159 9.10411Q17.1295 8.96548 17.1295 8.82617Q17.1295 8.68686 17.1159 8.54823Q17.1022 8.40959 17.0751 8.27296Q17.0479 8.13633 17.0074 8.00302Q16.967 7.86972 16.9137 7.74101Q16.8604 7.61231 16.7947 7.48945Q16.729 7.3666 16.6517 7.25077Q16.5743 7.13494 16.4859 7.02725Q16.3975 6.91957 16.299 6.82106L16.2976 6.81965Q16.1001 6.62216 15.8679 6.467Q15.6357 6.31184 15.3776 6.20496Q15.1196 6.09808 14.8457 6.04359Q14.5718 5.98911 14.2925 5.98911Q14.0132 5.98911 13.7393 6.04359Q13.4654 6.09808 13.2073 6.20496Q12.9493 6.31184 12.7171 6.467Q12.4849 6.62217 12.2874 6.81965L10.6064 8.50062L8.92545 6.81965Q8.72797 6.62217 8.49575 6.467Q8.26353 6.31184 8.0055 6.20496Q7.74748 6.09808 7.47356 6.0436Q7.19964 5.98911 6.92035 5.98911Q6.64106 5.98911 6.36714 6.04359Q6.09322 6.09808 5.83519 6.20496Q5.57717 6.31184 5.34495 6.467Q5.11273 6.62216 4.91524 6.81965Z" transform="translate(10.844238 11.87812)" id="arxist" fill="#000000" fill-rule="evenodd" stroke="#000000" stroke-width="1" />
</svg>