<?xml version="1.0" encoding="utf-8"?>
<svg width="44px" height="44px" viewBox="0 0 44 44" version="1.1" xmlns:xlink="http://www.w3.org/1999/xlink" xmlns="http://www.w3.org/2000/svg">
  <defs>
    <path d="M22 44C34.1503 44 44 34.1503 44 22C44 9.84974 34.1503 0 22 0C9.84974 0 0 9.84974 0 22C0 34.1503 9.84974 44 22 44Z" id="path_1" />
    <clipPath id="clip_1">
      <use xlink:href="#path_1" />
    </clipPath>
  </defs>
  <path d="M0 0L44 0L44 44L0 44L0 0Z" id="Rectangle" fill="none" fill-rule="evenodd" stroke="none" />
  <g id="Oval">
    <g clip-path="url(#clip_1)">
      <use xlink:href="#path_1" fill="none" stroke="#000000" stroke-width="4" />
    </g>
  </g>
  <path d="M7.31471 23L2.43724 23L2.43724 11.4985L0 11.4985L0 7.53553L2.43724 7.53553L2.43724 5.15627C2.43724 1.92344 3.81271 0 7.72302 0L10.9776 0L10.9776 3.96447L8.94351 3.96447C7.42126 3.96447 7.32067 4.51827 7.32067 5.55185L7.31396 7.53553L11 7.53553L10.5686 11.4985L7.31396 11.4985L7.31396 23L7.31471 23Z" transform="translate(16 12)" id="Shape" fill="#000000" fill-rule="evenodd" stroke="none" />
</svg>