<?xml version="1.0" encoding="utf-8"?>
<svg width="44px" height="44px" viewBox="0 0 44 44" version="1.1" xmlns:xlink="http://www.w3.org/1999/xlink" xmlns="http://www.w3.org/2000/svg">
  <defs>
    <path d="M22 44C34.1503 44 44 34.1503 44 22C44 9.84974 34.1503 0 22 0C9.84974 0 0 9.84974 0 22C0 34.1503 9.84974 44 22 44Z" id="path_1" />
    <clipPath id="clip_1">
      <use xlink:href="#path_1" />
    </clipPath>
  </defs>
  <path d="M22.3267 2.70468C20.3241 0.990851 17.5232 0 14.2646 0C5.77346 -1.98415e-07 0 6.42363 0 6.42363L1.62801 8.95667C1.62801 8.95667 2.52784 9.02949 2.05192 7.53931C2.46282 6.77732 3.26903 5.75006 4.84243 4.56676C4.84243 4.56676 4.84243 20.5634 4.84243 21.432C4.16365 21.6193 3.26903 21.973 3.88018 22.5711C4.92305 22.5711 7.77857 22.5711 8.55357 22.5711C9.16992 21.9652 8.19727 21.6011 7.60693 21.432C7.60693 20.7819 7.60693 17.453 7.60693 17.453C7.60693 17.453 10.8109 18.6857 14.2672 18.6857C17.3022 18.6857 20.0641 17.8015 22.1186 16.2021C24.1731 14.6131 25.4969 12.2387 25.4891 9.52361C25.4917 6.85794 24.3292 4.41072 22.3267 2.70468L22.3267 2.70468ZM19.8482 14.868C18.4283 16.2437 16.3607 17.1123 13.9785 17.1097C11.3207 17.1097 9.08148 16.6052 7.60431 15.8926C7.60431 15.8926 7.60431 15.4557 7.60431 12.2673C7.60431 8.81883 7.60431 3.23781 7.60431 3.23781C9.22452 2.10913 11.8564 1.41215 13.9785 1.41735C16.5584 1.41995 18.5843 2.3744 19.9548 3.82556C21.3228 5.28453 22.0692 7.22202 22.077 9.47419C22.0666 11.6743 21.2682 13.4818 19.8482 14.868L19.8482 14.868Z" transform="translate(9.255493 10.714439)" id="Shape" fill="#000000" fill-rule="evenodd" stroke="none" />
  <g id="Oval">
    <g clip-path="url(#clip_1)">
      <use xlink:href="#path_1" fill="none" stroke="#000000" stroke-width="4" />
    </g>
  </g>
</svg>